# xmcd CD database file
#
# Track frame offsets:
#	182
#	22332
#	41157
#	62080
#	79582
#	96560
#	109995
#	126157
#	137807
#	158805
#	179177
#	192810
#	220595
#	238767
#
# Disc length: 3396 seconds
#
# Revision: 4
# Processed by: cddbd v1.5.2PL0 Copyright (c) Steve Scherf et al.
# Submitted via: CDex 1.51
#
DISCID=d30d420e
DTITLE=Exile - The Complete Collection
DYEAR=1991
DGENRE=Rock
TTITLE0=Kiss You All Over
TTITLE1=The Closer You Get
TTITLE2=Take Me Down
TTITLE3=You Thrill Me
TTITLE4=Smooth Sailin' (Rock In The Road)
TTITLE5=Stay With Me
TTITLE6=You're Good For Me
TTITLE7=Dixie Girl
TTITLE8=Don't Leave Me This Way
TTITLE9=Nobody's Hero
TTITLE10=Jailbait
TTITLE11=Heart And Soul
TTITLE12=Take This Heart
TTITLE13=One More Night For Love
EXTD=While the first song is certainly pop, the bulk of the album is country. YEAR: 1991
EXTT0=
EXTT1=
EXTT2=
EXTT3=
EXTT4=
EXTT5=
EXTT6=
EXTT7=
EXTT8=
EXTT9=
EXTT10=
EXTT11=
EXTT12=
EXTT13=
PLAYORDER=
